<svg width="116" height="31" viewBox="0 0 116 31" fill="none" xmlns="http://www.w3.org/2000/svg">
<path d="M10.1324 30.0567C8.08817 30.0567 6.38038 29.5805 5.00908 28.6282C3.63777 27.6759 2.60294 26.3808 1.90459 24.7429C1.21894 23.1049 0.876113 21.2575 0.876113 19.2005C0.876113 17.1435 1.21894 15.2961 1.90459 13.6581C2.59025 12.0202 3.59968 10.7251 4.93289 9.77277C6.26611 8.82047 7.91041 8.34433 9.86579 8.34433C11.8339 8.34433 13.548 8.81413 15.0082 9.75372C16.4684 10.6933 17.5984 11.9821 18.3984 13.62C19.211 15.2453 19.6173 17.1055 19.6173 19.2005C19.6173 21.2575 19.2173 23.1049 18.4174 24.7429C17.6302 26.3808 16.5255 27.6759 15.1034 28.6282C13.6813 29.5805 12.0243 30.0567 10.1324 30.0567ZM0 29.4853V2.05917H5.21858V15.3913H4.57102V29.4853H0ZM9.29441 25.4476C10.4118 25.4476 11.326 25.1682 12.037 24.6095C12.7481 24.0509 13.275 23.3017 13.6178 22.3621C13.9607 21.4098 14.1321 20.356 14.1321 19.2005C14.1321 18.0577 13.9543 17.0166 13.5988 16.077C13.2433 15.1247 12.6909 14.3692 11.9418 13.8105C11.2054 13.2391 10.2594 12.9534 9.10395 12.9534C8.02468 12.9534 7.14857 13.2137 6.47561 13.7343C5.81536 14.2549 5.33286 14.985 5.02812 15.9246C4.72339 16.8642 4.57102 17.9562 4.57102 19.2005C4.57102 20.4448 4.72339 21.5368 5.02812 22.4764C5.33286 23.416 5.82805 24.1461 6.51371 24.6667C7.21206 25.1873 8.13896 25.4476 9.29441 25.4476Z" fill="url(#paint0_linear_204_408)"/>
<path d="M20.38 29.4853V1.48779H25.5605V29.4853H20.38Z" fill="url(#paint1_linear_204_408)"/>
<path d="M36.7176 30.0567C34.6479 30.0567 32.8322 29.5932 31.2704 28.6663C29.7087 27.7394 28.4897 26.4633 27.6136 24.8381C26.7502 23.2001 26.3185 21.3209 26.3185 19.2005C26.3185 17.0547 26.7629 15.1691 27.6517 13.5439C28.5405 11.9059 29.7658 10.6298 31.3276 9.71563C32.8893 8.80143 34.686 8.34433 36.7176 8.34433C38.7872 8.34433 40.6029 8.80778 42.1647 9.73468C43.7392 10.6616 44.9644 11.944 45.8406 13.582C46.7167 15.2072 47.1547 17.0801 47.1547 19.2005C47.1547 21.3336 46.7103 23.2192 45.8215 24.8571C44.9454 26.4824 43.7201 27.7585 42.1457 28.6854C40.5839 29.5996 38.7745 30.0567 36.7176 30.0567ZM36.7176 25.219C38.3809 25.219 39.6189 24.6603 40.4315 23.543C41.2568 22.4129 41.6695 20.9654 41.6695 19.2005C41.6695 17.3721 41.2505 15.9119 40.4125 14.8199C39.5872 13.728 38.3555 13.182 36.7176 13.182C35.5875 13.182 34.6606 13.4359 33.9369 13.9438C33.2131 14.4517 32.6735 15.1564 32.318 16.0579C31.9751 16.9594 31.8037 18.007 31.8037 19.2005C31.8037 21.0416 32.2164 22.5081 33.0417 23.6001C33.8797 24.6794 35.105 25.219 36.7176 25.219Z" fill="url(#paint2_linear_204_408)"/>
<path d="M56.5997 30.0567C54.4666 30.0567 52.6382 29.5805 51.1145 28.6282C49.5908 27.6759 48.4227 26.3808 47.6101 24.7429C46.7974 23.1049 46.3911 21.2575 46.3911 19.2005C46.3911 17.1181 46.8101 15.258 47.6481 13.62C48.4989 11.9821 49.6924 10.6933 51.2288 9.75372C52.7651 8.81413 54.5809 8.34433 56.6759 8.34433C59.1011 8.34433 61.1327 8.96015 62.7706 10.1918C64.4212 11.4107 65.4751 13.0804 65.9322 15.2009L60.7517 16.5722C60.447 15.5056 59.9137 14.6739 59.1519 14.0772C58.4027 13.4804 57.552 13.182 56.5997 13.182C55.5078 13.182 54.6126 13.4486 53.9143 13.9819C53.2159 14.5025 52.7017 15.2199 52.3715 16.1341C52.0414 17.0356 51.8763 18.0577 51.8763 19.2005C51.8763 20.9908 52.27 22.4447 53.0572 23.562C53.8571 24.6667 55.038 25.219 56.5997 25.219C57.7679 25.219 58.6567 24.9524 59.2662 24.4191C59.8756 23.8858 60.3327 23.124 60.6375 22.1336L65.9322 23.2382C65.3482 25.4222 64.2435 27.1046 62.6182 28.2854C60.993 29.4663 58.9868 30.0567 56.5997 30.0567Z" fill="url(#paint3_linear_204_408)"/>
<path d="M65.8944 29.4853L65.9325 2.05917H71.1892V18.8196L78.16 8.9157H84.5594L77.1315 19.2005L85.0546 29.4853H78.3124L71.1892 19.5814V29.4853H65.8944Z" fill="url(#paint4_linear_204_408)"/>
<path d="M89.7127 29.4852V5.63759L84.5703 8.79922V3.08544L89.7127 0H95.0075V29.4852H89.7127Z" fill="url(#paint5_linear_204_408)"/>
<path d="M106.439 29.9803C105.068 29.9803 103.76 29.7074 102.515 29.1614C101.271 28.6027 100.185 27.8218 99.2586 26.8187C98.3444 25.8156 97.6905 24.6348 97.2969 23.2762L102.325 21.943C102.592 22.9461 103.112 23.7269 103.887 24.2856C104.674 24.8316 105.525 25.1046 106.439 25.1046C107.226 25.1046 107.944 24.9141 108.591 24.5332C109.251 24.1523 109.772 23.6381 110.153 22.9905C110.546 22.3429 110.743 21.6255 110.743 20.8383C110.743 19.6575 110.337 18.648 109.524 17.81C108.724 16.9593 107.696 16.5339 106.439 16.5339C106.058 16.5339 105.69 16.5911 105.334 16.7053C104.979 16.8069 104.636 16.9529 104.306 17.1434L101.982 13.0676L110.705 3.77109L111.086 4.87576H98.3634V0H115.505V4.87576L108.724 13.4866L108.686 12.0391C110.261 12.2803 111.588 12.8327 112.667 13.6961C113.759 14.5468 114.584 15.6007 115.143 16.8577C115.714 18.102 116 19.4289 116 20.8383C116 22.5651 115.562 24.1205 114.686 25.5046C113.81 26.8759 112.648 27.9678 111.2 28.7805C109.753 29.5804 108.166 29.9803 106.439 29.9803Z" fill="url(#paint6_linear_204_408)"/>
<defs>
<linearGradient id="paint0_linear_204_408" x1="-22.7446" y1="-11.1804" x2="102.341" y2="29.4852" gradientUnits="userSpaceOnUse">
<stop stop-color="white"/>
<stop offset="0.572917" stop-color="#F4F4F4"/>
<stop offset="1" stop-color="white"/>
</linearGradient>
<linearGradient id="paint1_linear_204_408" x1="-22.7446" y1="-11.1804" x2="102.341" y2="29.4852" gradientUnits="userSpaceOnUse">
<stop stop-color="white"/>
<stop offset="0.572917" stop-color="#F4F4F4"/>
<stop offset="1" stop-color="white"/>
</linearGradient>
<linearGradient id="paint2_linear_204_408" x1="-22.7446" y1="-11.1804" x2="102.341" y2="29.4852" gradientUnits="userSpaceOnUse">
<stop stop-color="white"/>
<stop offset="0.572917" stop-color="#F4F4F4"/>
<stop offset="1" stop-color="white"/>
</linearGradient>
<linearGradient id="paint3_linear_204_408" x1="-22.7446" y1="-11.1804" x2="102.341" y2="29.4852" gradientUnits="userSpaceOnUse">
<stop stop-color="white"/>
<stop offset="0.572917" stop-color="#F4F4F4"/>
<stop offset="1" stop-color="white"/>
</linearGradient>
<linearGradient id="paint4_linear_204_408" x1="-22.7446" y1="-11.1804" x2="102.341" y2="29.4852" gradientUnits="userSpaceOnUse">
<stop stop-color="white"/>
<stop offset="0.572917" stop-color="#F4F4F4"/>
<stop offset="1" stop-color="white"/>
</linearGradient>
<linearGradient id="paint5_linear_204_408" x1="48.5489" y1="-25.851" x2="144.332" y2="-19.0883" gradientUnits="userSpaceOnUse">
<stop stop-color="#8F653B"/>
<stop offset="0.513494" stop-color="#EEBC70"/>
<stop offset="1" stop-color="#8F653B"/>
</linearGradient>
<linearGradient id="paint6_linear_204_408" x1="48.5489" y1="-25.851" x2="144.332" y2="-19.0883" gradientUnits="userSpaceOnUse">
<stop stop-color="#8F653B"/>
<stop offset="0.513494" stop-color="#EEBC70"/>
<stop offset="1" stop-color="#8F653B"/>
</linearGradient>
</defs>
</svg>
