<svg width="895" height="956" viewBox="0 0 895 956" fill="none" xmlns="http://www.w3.org/2000/svg">
<g opacity="0.1" filter="url(#filter0_f_189_2684)">
<path d="M412.66 158.799C438.105 80.4878 548.895 80.4878 574.34 158.799L608.788 264.82C620.167 299.842 652.804 323.553 689.628 323.553H801.104C883.446 323.553 917.682 428.921 851.066 477.32L760.88 542.844C731.088 564.489 718.622 602.855 730.002 637.877L764.45 743.897C789.895 822.209 700.264 887.329 633.648 838.93L543.462 773.406C513.67 751.761 473.33 751.761 443.538 773.406L353.352 838.93C286.736 887.329 197.105 822.209 222.55 743.897L256.998 637.877C268.378 602.855 255.912 564.489 226.12 542.844L135.934 477.32C69.3184 428.921 103.554 323.553 185.896 323.553H297.372C334.197 323.553 366.833 299.842 378.212 264.82L412.66 158.799Z" fill="url(#paint0_linear_189_2684)"/>
<path d="M412.66 158.799C438.105 80.4878 548.895 80.4878 574.34 158.799L608.788 264.82C620.167 299.842 652.804 323.553 689.628 323.553H801.104C883.446 323.553 917.682 428.921 851.066 477.32L760.88 542.844C731.088 564.489 718.622 602.855 730.002 637.877L764.45 743.897C789.895 822.209 700.264 887.329 633.648 838.93L543.462 773.406C513.67 751.761 473.33 751.761 443.538 773.406L353.352 838.93C286.736 887.329 197.105 822.209 222.55 743.897L256.998 637.877C268.378 602.855 255.912 564.489 226.12 542.844L135.934 477.32C69.3184 428.921 103.554 323.553 185.896 323.553H297.372C334.197 323.553 366.833 299.842 378.212 264.82L412.66 158.799Z" fill="white" fill-opacity="0.5"/>
<path d="M413.136 158.954C438.431 81.1029 548.569 81.103 573.864 158.954L608.312 264.974C619.759 300.202 652.587 324.053 689.628 324.053H801.104C882.961 324.053 916.996 428.801 850.772 476.915L760.586 542.44C730.619 564.212 718.08 602.803 729.526 638.031L763.974 744.052C789.269 821.903 700.166 886.64 633.942 838.526L543.756 773.002C513.789 751.229 473.211 751.229 443.244 773.002L353.058 838.526C286.834 886.64 197.731 821.903 223.026 744.052L257.474 638.031C268.92 602.803 256.381 564.212 226.414 542.44L136.228 476.915C70.0041 428.801 104.039 324.053 185.896 324.053H297.372C334.413 324.053 367.241 300.202 378.688 264.974L413.136 158.954Z" stroke="url(#paint1_angular_189_2684)"/>
</g>
<defs>
<filter id="filter0_f_189_2684" x="0.73291" y="0.0656738" width="985.534" height="955.484" filterUnits="userSpaceOnUse" color-interpolation-filters="sRGB">
<feFlood flood-opacity="0" result="BackgroundImageFix"/>
<feBlend mode="normal" in="SourceGraphic" in2="BackgroundImageFix" result="shape"/>
<feGaussianBlur stdDeviation="50" result="effect1_foregroundBlur_189_2684"/>
</filter>
<linearGradient id="paint0_linear_189_2684" x1="-105" y1="182.046" x2="1138.37" y2="202.044" gradientUnits="userSpaceOnUse">
<stop stop-color="#8F3B3B"/>
<stop offset="0.651042" stop-color="#EEA570"/>
<stop offset="1" stop-color="#8F653B"/>
</linearGradient>
<radialGradient id="paint1_angular_189_2684" cx="0" cy="0" r="1" gradientUnits="userSpaceOnUse" gradientTransform="translate(475.545 508.5) rotate(90) scale(598.5 580.545)">
<stop offset="0.0729167" stop-color="#E3A455"/>
<stop offset="0.244792" stop-color="#F6DBA6"/>
<stop offset="0.434957" stop-color="#FFEBC4"/>
<stop offset="0.532623" stop-color="#F0BE79"/>
<stop offset="0.593311" stop-color="#8F653B"/>
<stop offset="0.627652" stop-color="#673D22"/>
<stop offset="0.708863" stop-color="#BA7F3B"/>
<stop offset="0.773898" stop-color="#EEBC70"/>
<stop offset="0.921875" stop-color="#3F1F0F"/>
</radialGradient>
</defs>
</svg>
